<?xml version="1.0" encoding="UTF-8" standalone="no"?>
<svg
   xmlns:dc="http://purl.org/dc/elements/1.1/"
   xmlns:cc="http://creativecommons.org/ns#"
   xmlns:rdf="http://www.w3.org/1999/02/22-rdf-syntax-ns#"
   xmlns:svg="http://www.w3.org/2000/svg"
   xmlns="http://www.w3.org/2000/svg"
   xmlns:sodipodi="http://sodipodi.sourceforge.net/DTD/sodipodi-0.dtd"
   xmlns:inkscape="http://www.inkscape.org/namespaces/inkscape"
   id="svg8"
   version="1.1"
   viewBox="0 0 178.56329 123.26325"
   height="123.26325mm"
   width="178.56329mm"
   sodipodi:docname="ch5_profile_2.svg"
   inkscape:version="0.92.3 (2405546, 2018-03-11)">
  <sodipodi:namedview
     pagecolor="#ffffff"
     bordercolor="#666666"
     borderopacity="1"
     objecttolerance="10"
     gridtolerance="10"
     guidetolerance="10"
     inkscape:pageopacity="0"
     inkscape:pageshadow="2"
     inkscape:window-width="1366"
     inkscape:window-height="703"
     id="namedview43"
     showgrid="false"
     inkscape:zoom="0.50657163"
     inkscape:cx="337.44244"
     inkscape:cy="232.93843"
     inkscape:window-x="0"
     inkscape:window-y="0"
     inkscape:window-maximized="1"
     inkscape:current-layer="svg8" />
  <defs
     id="defs2">
    <marker
       orient="auto"
       refY="0"
       refX="0"
       id="marker4829-6"
       style="overflow:visible">
      <path
         id="path4827-6"
         d="M 0,0 5,-5 -12.5,0 5,5 Z"
         style="fill:#000000;fill-opacity:1;fill-rule:evenodd;stroke:#000000;stroke-width:1.00000003pt;stroke-opacity:1"
         transform="matrix(-0.8,0,0,-0.8,-10,0)" />
    </marker>
    <marker
       orient="auto"
       refY="0"
       refX="0"
       id="Arrow1Lend-2"
       style="overflow:visible">
      <path
         id="path4510-9"
         d="M 0,0 5,-5 -12.5,0 5,5 Z"
         style="fill:#000000;fill-opacity:1;fill-rule:evenodd;stroke:#000000;stroke-width:1.00000003pt;stroke-opacity:1"
         transform="matrix(-0.8,0,0,-0.8,-10,0)" />
    </marker>
  </defs>
  <metadata
     id="metadata5">
    <rdf:RDF>
      <cc:Work
         rdf:about="">
        <dc:format>image/svg+xml</dc:format>
        <dc:type
           rdf:resource="http://purl.org/dc/dcmitype/StillImage" />
        <dc:title />
      </cc:Work>
    </rdf:RDF>
  </metadata>
  <path
     inkscape:connector-curvature="0"
     style="fill:none;stroke:#000000;stroke-width:0.26300001;stroke-linecap:butt;stroke-linejoin:miter;stroke-miterlimit:4;stroke-dasharray:none;stroke-opacity:1;marker-end:url(#Arrow1Lend-2)"
     d="M 17.979177,121.57727 V 4.656928"
     id="path4503-9" />
  <path
     inkscape:connector-curvature="0"
     style="fill:none;stroke:#000000;stroke-width:0.26576856;stroke-linecap:butt;stroke-linejoin:miter;stroke-miterlimit:4;stroke-dasharray:none;stroke-opacity:1;marker-end:url(#marker4829-6)"
     d="M 10.462167,110.38025 H 174.07441"
     id="path4789-6" />
  <path
     inkscape:connector-curvature="0"
     style="fill:none;stroke:#000000;stroke-width:0.26300001;stroke-linecap:butt;stroke-linejoin:miter;stroke-miterlimit:4;stroke-dasharray:none;stroke-opacity:1"
     d="M 17.979177,20.043927 H 158.96429"
     id="path4885-4" />
  <path
     inkscape:connector-curvature="0"
     style="fill:none;stroke:#000000;stroke-width:0.26300001;stroke-linecap:butt;stroke-linejoin:miter;stroke-miterlimit:4;stroke-dasharray:none;stroke-opacity:1"
     d="M 158.96429,110.38025 V 20.043927"
     id="path4889-6" />
  <g
     id="g973"
     transform="translate(87.426298,19.030263)">
    <g
       word-spacing="normal"
       letter-spacing="normal"
       font-size-adjust="none"
       font-stretch="normal"
       font-weight="normal"
       font-variant="normal"
       font-style="normal"
       stroke-miterlimit="10.433"
       xml:space="preserve"
       transform="matrix(0.3,0,0,-0.3,-52.5,222.75)"
       id="content"
       style="font-style:normal;font-variant:normal;font-weight:normal;font-stretch:normal;letter-spacing:normal;word-spacing:normal;text-anchor:start;fill:none;fill-opacity:1;fill-rule:evenodd;stroke:#000000;stroke-linecap:butt;stroke-linejoin:miter;stroke-miterlimit:10.43299961;stroke-dasharray:none;stroke-dashoffset:0;stroke-opacity:1"><path
         inkscape:connector-curvature="0"
         id="path970"
         d="m 462.14,410.34 0.25,0.27 0.24,0.25 0.24,0.25 0.23,0.24 0.22,0.23 0.22,0.22 0.21,0.22 0.2,0.21 0.2,0.2 0.2,0.19 0.19,0.19 0.19,0.19 0.18,0.17 0.19,0.18 0.35,0.33 0.34,0.32 0.33,0.3 0.33,0.29 0.32,0.29 0.65,0.56 0.33,0.29 0.33,0.28 c 0,0.05 3.08,2.69 4.88,4.49 4.73,4.64 5.83,7.03 5.83,7.21 0,0.5 -0.46,0.5 -0.55,0.5 -0.35,0 -0.5,-0.09 -0.75,-0.54 -1.49,-2.39 -2.53,-3.19 -3.74,-3.19 -1.2,0 -1.79,0.75 -2.54,1.59 -0.94,1.16 -1.78,2.14 -3.44,2.14 -3.73,0 -6.02,-4.62 -6.02,-5.67 0,-0.25 0.14,-0.54 0.6,-0.54 0.45,0 0.54,0.25 0.64,0.54 0.95,2.3 3.84,2.35 4.23,2.35 1.05,0 2,-0.36 3.14,-0.75 2,-0.75 2.55,-0.75 3.85,-0.75 -1.8,-2.14 -5.99,-5.74 -6.92,-6.53 l -4.49,-4.18 c -3.39,-3.34 -5.14,-6.18 -5.14,-6.53 0,-0.5 0.5,-0.5 0.59,-0.5 0.41,0 0.5,0.1 0.8,0.64 1.16,1.75 2.64,3.1 4.24,3.1 1.15,0 1.65,-0.46 2.89,-1.89 0.86,-1.05 1.75,-1.85 3.18,-1.85 4.94,0 7.83,6.33 7.83,7.67 0,0.25 -0.2,0.5 -0.59,0.5 -0.46,0 -0.55,-0.29 -0.71,-0.65 -1.14,-3.24 -4.32,-4.17 -5.98,-4.17 -0.98,0 -1.89,0.29 -2.94,0.64 -1.68,0.64 -2.43,0.84 -3.48,0.84 -0.1,0 -0.89,0 -1.35,-0.14 z"
         style="fill:#000000;stroke-width:0" /></g>  </g>
  <g
     id="g1021"
     transform="translate(-60.362391,-94.287)">
    <g
       id="g1019"
       transform="matrix(0.3,0,0,-0.3,-52.5,222.75)"
       xml:space="preserve"
       stroke-miterlimit="10.433"
       font-style="normal"
       font-variant="normal"
       font-weight="normal"
       font-stretch="normal"
       font-size-adjust="none"
       letter-spacing="normal"
       word-spacing="normal"
       style="font-style:normal;font-variant:normal;font-weight:normal;font-stretch:normal;letter-spacing:normal;word-spacing:normal;text-anchor:start;fill:none;fill-opacity:1;fill-rule:evenodd;stroke:#000000;stroke-linecap:butt;stroke-linejoin:miter;stroke-miterlimit:10.43299961;stroke-dasharray:none;stroke-dashoffset:0;stroke-opacity:1"><path
         inkscape:connector-curvature="0"
         d="m 479.74,425.18 0.01,0.04 0.01,0.03 0.01,0.06 0.02,0.05 0.01,0.06 0.01,0.05 0.02,0.04 0.01,0.05 0.01,0.04 0.01,0.04 v 0.04 l 0.01,0.04 0.01,0.04 0.01,0.03 v 0.03 l 0.01,0.03 v 0.03 l 0.01,0.03 v 0.03 l 0.01,0.05 v 0.06 0.05 0.05 l 0.01,0.05 v 0.03 0.03 0.03 0.03 c 0,0.91 -0.69,1.35 -1.44,1.35 -0.5,0 -1.3,-0.3 -1.75,-1.05 -0.1,-0.25 -0.5,-1.78 -0.69,-2.69 -0.36,-1.29 -0.7,-2.64 -1,-3.98 l -2.25,-8.97 c -0.19,-0.75 -2.33,-4.23 -5.62,-4.23 -2.54,0 -3.1,2.18 -3.1,4.03 0,2.29 0.86,5.39 2.55,9.76 0.8,2.05 1,2.6 1,3.6 0,2.23 -1.59,4.07 -4.09,4.07 -4.74,0 -6.58,-7.21 -6.58,-7.67 0,-0.5 0.5,-0.5 0.61,-0.5 0.5,0 0.54,0.11 0.79,0.91 1.35,4.69 3.33,6.17 5.03,6.17 0.4,0 1.25,0 1.25,-1.59 0,-1.25 -0.5,-2.53 -0.85,-3.49 -1.99,-5.28 -2.9,-8.12 -2.9,-10.47 0,-4.42 3.15,-5.92 6.08,-5.92 1.96,0 3.64,0.85 5.03,2.24 -0.64,-2.58 -1.23,-5.03 -3.23,-7.68 -1.3,-1.68 -3.19,-3.14 -5.48,-3.14 -0.69,0 -2.94,0.16 -3.79,2.1 0.8,0 1.46,0 2.14,0.61 0.5,0.43 1,1.09 1,2.03 0,1.55 -1.34,1.75 -1.84,1.75 -1.14,0 -2.8,-0.8 -2.8,-3.24 0,-2.5 2.21,-4.34 5.29,-4.34 5.14,0 10.26,4.55 11.67,10.17 z"
         id="path1017"
         style="fill:#000000;stroke-width:0" /></g>  </g>
  <g
     id="g1075"
     transform="translate(-63.461796,21.827285)">
    <g
       word-spacing="normal"
       letter-spacing="normal"
       font-size-adjust="none"
       font-stretch="normal"
       font-weight="normal"
       font-variant="normal"
       font-style="normal"
       stroke-miterlimit="10.433"
       xml:space="preserve"
       transform="matrix(0.3,0,0,-0.3,-52.5,222.75)"
       id="g1073"
       style="font-style:normal;font-variant:normal;font-weight:normal;font-stretch:normal;letter-spacing:normal;word-spacing:normal;text-anchor:start;fill:none;fill-opacity:1;fill-rule:evenodd;stroke:#000000;stroke-linecap:butt;stroke-linejoin:miter;stroke-miterlimit:10.43299961;stroke-dasharray:none;stroke-dashoffset:0;stroke-opacity:1"><path
         inkscape:connector-curvature="0"
         id="path1071"
         d="m 478.44,422.14 v 0.74 l -0.01,0.75 -0.02,0.75 -0.04,0.74 -0.04,0.75 -0.06,0.74 -0.08,0.74 -0.09,0.73 -0.12,0.73 -0.14,0.73 -0.16,0.72 -0.19,0.72 -0.21,0.72 -0.25,0.7 -0.28,0.7 -0.15,0.35 -0.16,0.34 c -2.28,4.8 -6.37,5.6 -8.47,5.6 -2.98,0 -6.62,-1.3 -8.67,-5.94 -1.59,-3.44 -1.84,-7.33 -1.84,-11.31 0,-3.74 0.2,-8.22 2.25,-12 2.14,-4.03 5.78,-5.03 8.22,-5.03 v 1.09 c -1.94,0 -4.89,1.25 -5.79,6.03 -0.54,2.98 -0.54,7.56 -0.54,10.52 0,3.18 0,6.46 0.4,9.15 0.94,5.94 4.68,6.38 5.93,6.38 1.64,0 4.93,-0.89 5.87,-5.83 0.5,-2.78 0.5,-6.58 0.5,-9.7 0,-3.75 0,-7.13 -0.55,-10.32 -0.75,-4.73 -3.59,-6.23 -5.82,-6.23 v 0 -1.09 c 2.68,0 6.46,1.04 8.67,5.78 1.59,3.43 1.84,7.31 1.84,11.25 z"
         style="fill:#000000;stroke-width:0" /></g>  </g>
  <g
     id="g1135"
     transform="translate(68.493289,22.373252)">
    <g
       id="g1133"
       transform="matrix(0.3,0,0,-0.3,-52.5,222.75)"
       xml:space="preserve"
       stroke-miterlimit="10.433"
       font-style="normal"
       font-variant="normal"
       font-weight="normal"
       font-stretch="normal"
       font-size-adjust="none"
       letter-spacing="normal"
       word-spacing="normal"
       style="font-style:normal;font-variant:normal;font-weight:normal;font-stretch:normal;letter-spacing:normal;word-spacing:normal;text-anchor:start;fill:none;fill-opacity:1;fill-rule:evenodd;stroke:#000000;stroke-linecap:butt;stroke-linejoin:miter;stroke-miterlimit:10.43299961;stroke-dasharray:none;stroke-dashoffset:0;stroke-opacity:1"><path
         inkscape:connector-curvature="0"
         d="m 474.16,436.34 0.04,0.16 0.04,0.16 0.04,0.15 0.04,0.15 0.04,0.13 0.05,0.13 0.05,0.13 0.05,0.11 0.06,0.12 0.06,0.1 0.08,0.1 0.08,0.09 0.09,0.09 0.1,0.08 0.11,0.08 0.12,0.07 0.13,0.06 0.15,0.06 0.16,0.06 0.18,0.05 0.09,0.02 0.1,0.02 0.1,0.02 0.11,0.02 0.11,0.02 0.11,0.02 0.12,0.02 0.13,0.01 0.13,0.01 0.14,0.02 0.14,0.01 0.14,0.01 0.15,0.01 0.16,0.01 0.16,0.01 0.17,0.01 h 0.17 l 0.18,0.01 h 0.18 l 0.19,0.01 h 0.2 0.2 0.21 0.22 c 1.49,0 1.89,0 1.89,0.96 0,0.59 -0.54,0.59 -0.79,0.59 -1.66,0 -5.74,-0.16 -7.38,-0.16 -1.5,0 -5.14,0.16 -6.62,0.16 -0.36,0 -0.96,0 -0.96,-1 0,-0.55 0.46,-0.55 1.39,-0.55 0.11,0 1.05,0 1.91,-0.09 0.89,-0.11 1.34,-0.16 1.34,-0.8 0,-0.2 -0.06,-0.36 -0.2,-0.95 l -6.67,-26.75 c -0.5,-1.95 -0.61,-2.34 -4.55,-2.34 -0.84,0 -1.34,0 -1.34,-1 0,-0.55 0.45,-0.55 1.34,-0.55 h 23.08 c 1.19,0 1.23,0 1.55,0.84 l 3.92,10.77 c 0.2,0.55 0.2,0.64 0.2,0.7 0,0.19 -0.14,0.55 -0.59,0.55 -0.46,0 -0.5,-0.25 -0.85,-1.05 -1.7,-4.59 -3.89,-10.26 -12.51,-10.26 h -4.67 c -0.71,0 -0.8,0 -1.1,0.04 -0.5,0.05 -0.65,0.1 -0.65,0.5 0,0.14 0,0.25 0.25,1.14 z"
         id="path1131"
         style="fill:#000000;stroke-width:0" /></g>  </g>
  <g
     id="g1489"
     transform="translate(-85.087326,-77.306073)">
    <g
       id="g1487"
       transform="matrix(0.3,0,0,-0.3,-52.5,222.75)"
       xml:space="preserve"
       stroke-miterlimit="10.433"
       font-style="normal"
       font-variant="normal"
       font-weight="normal"
       font-stretch="normal"
       font-size-adjust="none"
       letter-spacing="normal"
       word-spacing="normal"
       style="font-style:normal;font-variant:normal;font-weight:normal;font-stretch:normal;letter-spacing:normal;word-spacing:normal;text-anchor:start;fill:none;fill-opacity:1;fill-rule:evenodd;stroke:#000000;stroke-linecap:butt;stroke-linejoin:miter;stroke-miterlimit:10.43299961;stroke-dasharray:none;stroke-dashoffset:0;stroke-opacity:1"><path
         inkscape:connector-curvature="0"
         d="m 467.78,442.29 0.12,-0.05 0.13,-0.05 0.12,-0.04 0.12,-0.03 0.11,-0.04 0.12,-0.03 0.11,-0.03 0.12,-0.03 0.11,-0.03 0.11,-0.02 0.22,-0.04 0.21,-0.04 0.21,-0.03 0.21,-0.02 0.2,-0.01 0.2,-0.01 0.2,-0.01 0.2,-0.01 h 0.19 0.38 v 0.97 c -0.53,0 -1.23,0 -1.86,0.14 v 0 c 0.39,0.11 1.08,0.28 2.13,0.28 0.76,0 0.95,-0.03 1.64,-0.17 -0.52,-0.2 -0.63,-0.25 -1.91,-0.25 v -0.97 c 1.11,0 3.16,0 3.16,1.28 0,0.95 -1.31,1.08 -2.81,1.08 -0.49,0 -1.99,0 -3.71,-0.69 -0.79,0.38 -1.31,1.05 -1.31,1.81 0,1.88 3.38,3.07 6.89,3.07 0.56,0 2.06,0 3.63,-0.97 0.21,-0.14 0.42,-0.31 0.7,-0.31 0.48,0 1.11,0.51 1.11,1.1 0,0.71 -1.14,1.19 -1.81,1.47 -1.5,0.63 -2.72,0.63 -3.24,0.63 -4.25,0 -8.47,-2.24 -8.47,-5.02 0,-1.43 1.33,-2.34 1.36,-2.37 -1.29,-0.77 -3.03,-2.3 -3.03,-4.5 0,-2.53 2.5,-4.53 6.38,-4.53 5.29,0 7.17,3.14 7.17,3.7 0,0.23 -0.21,0.45 -0.49,0.45 -0.2,0 -0.31,-0.14 -0.42,-0.28 -0.86,-1.36 -2.01,-1.95 -5.7,-1.95 -0.88,0 -2.52,0 -3.77,0.48 -1.39,0.53 -1.98,1.47 -1.98,2.35 0,0.79 0.59,2.5 2.95,3.72 z"
         id="path1475"
         style="fill:#000000;stroke-width:0" /><path
         inkscape:connector-curvature="0"
         d="m 487.75,445.46 v 0.03 0.04 0.04 l -0.01,0.04 v 0.04 0.04 0.04 0.05 l -0.01,0.04 -0.01,0.04 v 0.05 l -0.01,0.04 -0.01,0.04 -0.01,0.04 -0.02,0.04 -0.01,0.04 -0.02,0.04 -0.02,0.04 -0.02,0.04 -0.03,0.03 -0.02,0.03 -0.03,0.03 -0.02,0.02 -0.02,0.01 -0.01,0.02 -0.02,0.01 -0.02,0.01 -0.02,0.01 -0.02,0.01 -0.02,0.01 -0.02,0.01 -0.03,0.01 -0.02,0.01 -0.02,0.01 -0.03,0.01 h -0.03 l -0.02,0.01 h -0.03 -0.03 l -0.03,0.01 h -0.03 -0.04 c -0.7,0 -0.7,-0.75 -0.7,-1.16 v -22.61 c 0,-0.4 0,-1.15 0.7,-1.15 0.71,0 0.71,0.65 0.71,1.03 z"
         id="path1477"
         style="fill:#000000;stroke-width:0" /><path
         inkscape:connector-curvature="0"
         d="m 493.67,445.33 v 0.04 0.04 0.04 0.05 0.04 l -0.01,0.05 v 0.05 0.04 l -0.01,0.05 v 0.05 l -0.01,0.05 -0.01,0.05 -0.01,0.04 -0.01,0.05 -0.01,0.05 -0.02,0.04 -0.02,0.05 -0.02,0.04 -0.02,0.04 -0.02,0.04 -0.03,0.04 -0.03,0.03 -0.03,0.03 -0.02,0.02 -0.02,0.01 -0.02,0.02 -0.02,0.01 -0.02,0.01 -0.02,0.02 -0.02,0.01 -0.02,0.01 -0.03,0.01 h -0.02 l -0.03,0.01 -0.03,0.01 h -0.02 l -0.03,0.01 h -0.03 l -0.03,0.01 H 493 492.96 c -0.68,0 -0.68,-0.66 -0.68,-1.03 V 422.6 c 0,-0.38 0,-1.03 0.68,-1.03 0.71,0 0.71,0.75 0.71,1.15 z"
         id="path1479"
         style="fill:#000000;stroke-width:0" /><polyline
         points="462,418 502.68,418 502.68,420.04 462,420.04 "
         id="polyline1481"
         style="fill:#000000;fill-rule:nonzero;stroke-width:0" /><path
         inkscape:connector-curvature="0"
         d="m 467.3,396.8 0.12,-0.04 0.13,-0.05 0.12,-0.04 0.12,-0.04 0.11,-0.03 0.12,-0.03 0.11,-0.03 0.12,-0.03 0.11,-0.03 0.11,-0.02 0.22,-0.05 0.21,-0.03 0.21,-0.03 0.21,-0.02 0.2,-0.01 0.2,-0.02 h 0.2 l 0.2,-0.01 h 0.19 0.38 v 0.97 c -0.53,0 -1.23,0 -1.86,0.14 v 0 c 0.39,0.11 1.08,0.28 2.13,0.28 0.76,0 0.95,-0.03 1.64,-0.17 -0.52,-0.21 -0.63,-0.25 -1.91,-0.25 v -0.97 c 1.11,0 3.16,0 3.16,1.28 0,0.95 -1.31,1.08 -2.81,1.08 -0.49,0 -1.99,0 -3.71,-0.69 -0.79,0.38 -1.31,1.05 -1.31,1.81 0,1.88 3.37,3.07 6.89,3.07 0.56,0 2.06,0 3.63,-0.97 0.21,-0.14 0.42,-0.32 0.7,-0.32 0.48,0 1.11,0.52 1.11,1.11 0,0.71 -1.14,1.19 -1.81,1.47 -1.5,0.63 -2.72,0.63 -3.24,0.63 -4.25,0 -8.47,-2.24 -8.47,-5.02 0,-1.44 1.33,-2.34 1.36,-2.37 -1.3,-0.77 -3.03,-2.3 -3.03,-4.5 0,-2.53 2.5,-4.53 6.38,-4.53 5.29,0 7.17,3.14 7.17,3.7 0,0.23 -0.21,0.45 -0.49,0.45 -0.2,0 -0.31,-0.14 -0.42,-0.28 -0.86,-1.36 -2.01,-1.95 -5.7,-1.95 -0.88,0 -2.52,0 -3.77,0.48 -1.39,0.53 -1.98,1.47 -1.98,2.35 0,0.79 0.59,2.5 2.95,3.71 z"
         id="path1483"
         style="fill:#000000;stroke-width:0" /><path
         inkscape:connector-curvature="0"
         d="m 494.75,392.08 0.01,0.05 0.01,0.05 0.02,0.05 0.01,0.06 0.02,0.06 0.01,0.05 0.03,0.12 0.03,0.12 0.03,0.13 0.03,0.12 0.03,0.12 0.02,0.05 0.01,0.06 0.02,0.05 0.01,0.06 0.01,0.05 0.01,0.05 0.01,0.04 0.01,0.05 0.01,0.04 0.01,0.03 0.01,0.04 v 0.03 l 0.01,0.03 v 0.02 0.02 0 0.01 c 0,0.42 -0.31,0.88 -0.92,0.88 -0.43,0 -1.04,-0.3 -1.23,-1 -0.49,0.64 -1.42,1.5 -3,1.5 v -0.86 c 1.12,0 2.2,-0.68 2.59,-2.16 l -1.14,-4.69 c -0.11,-0.37 -0.11,-0.42 -0.54,-0.92 -0.93,-1.05 -2.22,-1.81 -3.47,-1.81 -0.88,0 -2.19,0.47 -2.19,2.53 0,1.16 0.59,3.77 1.47,5.06 0.97,1.38 2.23,1.99 3.28,1.99 v 0.86 c -3.5,0 -7,-3.43 -7,-6.96 0,-2.54 1.87,-4.34 4.36,-4.34 2.05,0 3.64,1.45 3.94,1.75 0.45,-1.22 1.82,-1.75 2.93,-1.75 1,0 1.68,0.58 2.21,1.4 0.64,0.97 0.98,2.29 0.98,2.47 0,0.35 -0.42,0.35 -0.51,0.35 -0.46,0 -0.47,-0.16 -0.6,-0.55 -0.45,-1.84 -1.09,-2.81 -1.97,-2.81 -0.7,0 -1,0.54 -1,1.31 0,0.38 0.25,1.33 0.41,2 z"
         id="path1485"
         style="fill:#000000;stroke-width:0" /></g>  </g>
  <g
     id="g1613"
     transform="translate(-86.1,0.625415)">
    <g
       word-spacing="normal"
       letter-spacing="normal"
       font-size-adjust="none"
       font-stretch="normal"
       font-weight="normal"
       font-variant="normal"
       font-style="normal"
       stroke-miterlimit="10.433"
       xml:space="preserve"
       transform="matrix(0.3,0,0,-0.3,-52.5,222.75)"
       id="g1611"
       style="font-style:normal;font-variant:normal;font-weight:normal;font-stretch:normal;letter-spacing:normal;word-spacing:normal;text-anchor:start;fill:none;fill-opacity:1;fill-rule:evenodd;stroke:#000000;stroke-linecap:butt;stroke-linejoin:miter;stroke-miterlimit:10.43299961;stroke-dasharray:none;stroke-dashoffset:0;stroke-opacity:1"><path
         inkscape:connector-curvature="0"
         id="path1601"
         d="m 467.3,434.73 0.12,-0.05 0.13,-0.04 0.12,-0.04 0.12,-0.04 0.11,-0.04 0.12,-0.03 0.11,-0.03 0.12,-0.03 0.11,-0.03 0.11,-0.02 0.22,-0.04 0.21,-0.04 0.21,-0.02 0.21,-0.03 0.2,-0.01 0.2,-0.01 0.2,-0.01 0.2,-0.01 h 0.19 0.38 v 0.97 c -0.53,0 -1.23,0 -1.86,0.14 v 0 c 0.39,0.11 1.08,0.28 2.13,0.28 0.76,0 0.95,-0.03 1.64,-0.17 -0.52,-0.2 -0.63,-0.25 -1.91,-0.25 v -0.97 c 1.11,0 3.16,0 3.16,1.28 0,0.96 -1.31,1.08 -2.81,1.08 -0.49,0 -1.99,0 -3.71,-0.69 -0.79,0.38 -1.31,1.05 -1.31,1.82 0,1.87 3.37,3.06 6.89,3.06 0.56,0 2.06,0 3.63,-0.97 0.21,-0.14 0.42,-0.31 0.7,-0.31 0.48,0 1.11,0.51 1.11,1.11 0,0.7 -1.14,1.18 -1.81,1.46 -1.5,0.63 -2.72,0.63 -3.24,0.63 -4.25,0 -8.47,-2.23 -8.47,-5.02 0,-1.43 1.33,-2.34 1.36,-2.37 -1.3,-0.77 -3.03,-2.3 -3.03,-4.5 0,-2.53 2.5,-4.53 6.38,-4.53 5.29,0 7.17,3.14 7.17,3.7 0,0.24 -0.21,0.45 -0.49,0.45 -0.2,0 -0.31,-0.14 -0.42,-0.28 -0.86,-1.36 -2.01,-1.95 -5.7,-1.95 -0.88,0 -2.52,0 -3.77,0.48 -1.39,0.54 -1.98,1.47 -1.98,2.35 0,0.79 0.59,2.5 2.95,3.72 z"
         style="fill:#000000;stroke-width:0" /><path
         inkscape:connector-curvature="0"
         id="path1603"
         d="m 494.56,437.78 v 0.03 0.04 0.04 0.04 0.05 0.04 0.04 l -0.01,0.05 v 0.04 l -0.01,0.05 -0.01,0.04 v 0.05 l -0.01,0.04 -0.02,0.04 -0.01,0.04 -0.02,0.05 -0.01,0.04 -0.02,0.03 -0.02,0.04 -0.03,0.04 -0.03,0.03 -0.03,0.03 -0.03,0.03 -0.02,0.02 -0.01,0.01 -0.02,0.01 -0.02,0.01 -0.02,0.01 -0.02,0.02 -0.03,0.01 h -0.02 l -0.02,0.01 -0.03,0.01 -0.02,0.01 h -0.03 l -0.03,0.01 h -0.03 l -0.03,0.01 h -0.03 -0.03 -0.03 c -0.7,0 -0.7,-0.69 -0.7,-1.06 v -14.83 h -8.61 c -0.38,0 -1.08,0 -1.08,-0.69 0,-0.7 0.7,-0.7 1.08,-0.7 h 18.62 c 0.41,0 1.08,0 1.08,0.7 0,0.69 -0.67,0.69 -1.08,0.69 h -8.61 z"
         style="fill:#000000;stroke-width:0" /><polyline
         id="polyline1605"
         points="462,418 510.36,418 510.36,420.04 462,420.04 "
         style="fill:#000000;fill-rule:nonzero;stroke-width:0" /><path
         inkscape:connector-curvature="0"
         id="path1607"
         d="m 471.14,396.8 0.12,-0.04 0.13,-0.05 0.12,-0.04 0.12,-0.04 0.11,-0.03 0.12,-0.03 0.11,-0.03 0.12,-0.03 0.11,-0.03 0.11,-0.02 0.22,-0.05 0.21,-0.03 0.21,-0.03 0.21,-0.02 0.2,-0.01 0.2,-0.02 h 0.2 l 0.2,-0.01 h 0.19 0.38 v 0.97 c -0.53,0 -1.23,0 -1.86,0.14 v 0 c 0.39,0.11 1.08,0.28 2.13,0.28 0.76,0 0.95,-0.03 1.64,-0.17 -0.52,-0.21 -0.63,-0.25 -1.91,-0.25 v -0.97 c 1.11,0 3.16,0 3.16,1.28 0,0.95 -1.31,1.08 -2.81,1.08 -0.49,0 -1.99,0 -3.71,-0.69 -0.79,0.38 -1.31,1.05 -1.31,1.81 0,1.88 3.37,3.07 6.89,3.07 0.56,0 2.06,0 3.63,-0.97 0.21,-0.14 0.42,-0.32 0.7,-0.32 0.48,0 1.11,0.52 1.11,1.11 0,0.71 -1.14,1.19 -1.81,1.47 -1.5,0.63 -2.72,0.63 -3.24,0.63 -4.25,0 -8.47,-2.24 -8.47,-5.02 0,-1.44 1.33,-2.34 1.36,-2.37 -1.3,-0.77 -3.03,-2.3 -3.03,-4.5 0,-2.53 2.5,-4.53 6.38,-4.53 5.29,0 7.17,3.14 7.17,3.7 0,0.23 -0.21,0.45 -0.49,0.45 -0.2,0 -0.31,-0.14 -0.42,-0.28 -0.86,-1.36 -2.02,-1.95 -5.7,-1.95 -0.88,0 -2.52,0 -3.77,0.48 -1.39,0.53 -1.98,1.47 -1.98,2.35 0,0.79 0.59,2.5 2.95,3.71 z"
         style="fill:#000000;stroke-width:0" /><path
         inkscape:connector-curvature="0"
         id="path1609"
         d="m 498.59,392.08 0.01,0.05 0.01,0.05 0.02,0.05 0.01,0.06 0.02,0.06 0.01,0.05 0.03,0.12 0.03,0.12 0.03,0.13 0.03,0.12 0.03,0.12 0.02,0.05 0.01,0.06 0.02,0.05 0.01,0.06 0.01,0.05 0.01,0.05 0.01,0.04 0.01,0.05 0.01,0.04 0.01,0.03 0.01,0.04 v 0.03 l 0.01,0.03 v 0.02 0.02 0 0.01 c 0,0.42 -0.31,0.88 -0.92,0.88 -0.43,0 -1.04,-0.3 -1.23,-1 -0.49,0.64 -1.42,1.5 -3,1.5 v -0.86 c 1.12,0 2.2,-0.68 2.59,-2.16 l -1.14,-4.69 c -0.11,-0.37 -0.11,-0.42 -0.55,-0.92 -0.92,-1.05 -2.21,-1.81 -3.46,-1.81 -0.88,0 -2.19,0.47 -2.19,2.53 0,1.16 0.59,3.77 1.47,5.06 0.97,1.38 2.23,1.99 3.28,1.99 v 0.86 c -3.5,0 -7,-3.43 -7,-6.96 0,-2.54 1.87,-4.34 4.36,-4.34 2.04,0 3.64,1.45 3.94,1.75 0.45,-1.22 1.82,-1.75 2.93,-1.75 1,0 1.67,0.58 2.21,1.4 0.64,0.97 0.98,2.29 0.98,2.47 0,0.35 -0.42,0.35 -0.52,0.35 -0.45,0 -0.46,-0.16 -0.59,-0.55 -0.45,-1.84 -1.09,-2.81 -1.97,-2.81 -0.7,0 -1,0.54 -1,1.31 0,0.38 0.25,1.33 0.41,2 z"
         style="fill:#000000;stroke-width:0" /></g>  </g>
  <path
     inkscape:connector-curvature="0"
     id="path6252"
     d="M 18.135398,110.2089 C 26.122552,98.74198 35.213609,88.04436 45.241958,78.31209 76.261822,48.208064 116.41045,27.637022 158.96429,20.043927"
     style="fill:none;stroke:#000000;stroke-width:0.69999999;stroke-linecap:butt;stroke-linejoin:miter;stroke-miterlimit:4;stroke-dasharray:none;stroke-opacity:1" />
  <path
     inkscape:connector-curvature="0"
     id="path6252-6"
     d="m 18.135397,110.2089 c 22.16514,-2.7281 43.84783,-9.33237 63.770252,-19.4236 C 113.4036,74.83075 140.38027,50.065632 158.96429,20.043927"
     style="fill:none;stroke:#000000;stroke-width:0.70008749;stroke-linecap:butt;stroke-linejoin:miter;stroke-miterlimit:4;stroke-dasharray:5.60069988,5.60069988;stroke-opacity:1;stroke-dashoffset:0" />
</svg>
